<mxfile host="app.diagrams.net" modified="2023-11-19T20:57:54.669Z" agent="Mozilla/5.0 (Windows NT 10.0; Win64; x64) AppleWebKit/537.36 (KHTML, like Gecko) Chrome/119.0.0.0 Safari/537.36" etag="RjZvh5EfFZGq6y_q7kfd" version="22.1.3" type="github" pages="14">
  <diagram name="judgement_end" id="Up_NqSoOAkDP1xRXC8_C">
    <mxGraphModel dx="1195" dy="622" grid="1" gridSize="10" guides="1" tooltips="1" connect="1" arrows="1" fold="1" page="1" pageScale="1" pageWidth="827" pageHeight="1169" math="0" shadow="0">
      <root>
        <mxCell id="0" />
        <mxCell id="1" parent="0" />
        <mxCell id="NGbGZiI9YUuwVLyIA1a6-1" value="judgement_end(&lt;br&gt;board, turn)" style="strokeWidth=2;html=1;shape=mxgraph.flowchart.terminator;whiteSpace=wrap;" vertex="1" parent="1">
          <mxGeometry x="100" y="30" width="120" height="50" as="geometry" />
        </mxCell>
        <mxCell id="NGbGZiI9YUuwVLyIA1a6-2" value="" style="endArrow=classic;html=1;rounded=0;exitX=0.5;exitY=1;exitDx=0;exitDy=0;exitPerimeter=0;entryX=0.5;entryY=0;entryDx=0;entryDy=0;" edge="1" parent="1" source="NGbGZiI9YUuwVLyIA1a6-1" target="NGbGZiI9YUuwVLyIA1a6-3">
          <mxGeometry width="50" height="50" relative="1" as="geometry">
            <mxPoint x="170" y="210" as="sourcePoint" />
            <mxPoint x="160" y="150" as="targetPoint" />
          </mxGeometry>
        </mxCell>
        <mxCell id="NGbGZiI9YUuwVLyIA1a6-3" value="checkmate?" style="rhombus;whiteSpace=wrap;html=1;" vertex="1" parent="1">
          <mxGeometry x="100" y="130" width="120" height="50" as="geometry" />
        </mxCell>
        <mxCell id="NGbGZiI9YUuwVLyIA1a6-4" value="draw?" style="rhombus;whiteSpace=wrap;html=1;" vertex="1" parent="1">
          <mxGeometry x="100" y="240" width="120" height="50" as="geometry" />
        </mxCell>
        <mxCell id="NGbGZiI9YUuwVLyIA1a6-5" value="" style="endArrow=classic;html=1;rounded=0;exitX=0.5;exitY=1;exitDx=0;exitDy=0;entryX=0.5;entryY=0;entryDx=0;entryDy=0;" edge="1" parent="1" source="NGbGZiI9YUuwVLyIA1a6-3" target="NGbGZiI9YUuwVLyIA1a6-4">
          <mxGeometry width="50" height="50" relative="1" as="geometry">
            <mxPoint x="230" y="210" as="sourcePoint" />
            <mxPoint x="280" y="160" as="targetPoint" />
          </mxGeometry>
        </mxCell>
        <mxCell id="NGbGZiI9YUuwVLyIA1a6-8" value="Return &lt;br&gt;curr_color, win_or_draw" style="strokeWidth=2;html=1;shape=mxgraph.flowchart.terminator;whiteSpace=wrap;" vertex="1" parent="1">
          <mxGeometry x="90" y="330" width="140" height="60" as="geometry" />
        </mxCell>
        <mxCell id="NGbGZiI9YUuwVLyIA1a6-9" value="" style="endArrow=classic;html=1;rounded=0;exitX=0.5;exitY=1;exitDx=0;exitDy=0;entryX=0.5;entryY=0;entryDx=0;entryDy=0;entryPerimeter=0;" edge="1" parent="1" source="NGbGZiI9YUuwVLyIA1a6-4" target="NGbGZiI9YUuwVLyIA1a6-8">
          <mxGeometry width="50" height="50" relative="1" as="geometry">
            <mxPoint x="230" y="290" as="sourcePoint" />
            <mxPoint x="280" y="240" as="targetPoint" />
          </mxGeometry>
        </mxCell>
        <mxCell id="NGbGZiI9YUuwVLyIA1a6-10" style="edgeStyle=orthogonalEdgeStyle;rounded=0;orthogonalLoop=1;jettySize=auto;html=1;exitX=1;exitY=0.5;exitDx=0;exitDy=0;entryX=1;entryY=0.5;entryDx=0;entryDy=0;entryPerimeter=0;" edge="1" parent="1" source="NGbGZiI9YUuwVLyIA1a6-3" target="NGbGZiI9YUuwVLyIA1a6-8">
          <mxGeometry relative="1" as="geometry">
            <Array as="points">
              <mxPoint x="270" y="155" />
              <mxPoint x="270" y="360" />
            </Array>
          </mxGeometry>
        </mxCell>
        <mxCell id="NGbGZiI9YUuwVLyIA1a6-12" value="Yes" style="text;html=1;strokeColor=none;fillColor=none;align=center;verticalAlign=middle;whiteSpace=wrap;rounded=0;" vertex="1" parent="1">
          <mxGeometry x="210" y="130" width="60" height="30" as="geometry" />
        </mxCell>
        <mxCell id="NGbGZiI9YUuwVLyIA1a6-13" value="No" style="text;html=1;strokeColor=none;fillColor=none;align=center;verticalAlign=middle;whiteSpace=wrap;rounded=0;" vertex="1" parent="1">
          <mxGeometry x="143" y="190" width="60" height="30" as="geometry" />
        </mxCell>
        <mxCell id="NGbGZiI9YUuwVLyIA1a6-14" value="Yes" style="text;html=1;strokeColor=none;fillColor=none;align=center;verticalAlign=middle;whiteSpace=wrap;rounded=0;" vertex="1" parent="1">
          <mxGeometry x="143" y="294" width="60" height="30" as="geometry" />
        </mxCell>
        <mxCell id="NGbGZiI9YUuwVLyIA1a6-15" value="Return &lt;br&gt;(6, 6)" style="strokeWidth=2;html=1;shape=mxgraph.flowchart.terminator;whiteSpace=wrap;" vertex="1" parent="1">
          <mxGeometry x="90" y="420" width="140" height="60" as="geometry" />
        </mxCell>
        <mxCell id="NGbGZiI9YUuwVLyIA1a6-17" style="edgeStyle=orthogonalEdgeStyle;rounded=0;orthogonalLoop=1;jettySize=auto;html=1;exitX=0;exitY=0.5;exitDx=0;exitDy=0;entryX=0;entryY=0.5;entryDx=0;entryDy=0;entryPerimeter=0;" edge="1" parent="1" source="NGbGZiI9YUuwVLyIA1a6-4" target="NGbGZiI9YUuwVLyIA1a6-15">
          <mxGeometry relative="1" as="geometry">
            <Array as="points">
              <mxPoint x="50" y="265" />
              <mxPoint x="50" y="450" />
            </Array>
          </mxGeometry>
        </mxCell>
        <mxCell id="NGbGZiI9YUuwVLyIA1a6-18" value="No" style="text;html=1;strokeColor=none;fillColor=none;align=center;verticalAlign=middle;whiteSpace=wrap;rounded=0;" vertex="1" parent="1">
          <mxGeometry x="50" y="240" width="60" height="30" as="geometry" />
        </mxCell>
      </root>
    </mxGraphModel>
  </diagram>
  <diagram id="q4XfdBg4RmYl5wVIyIH-" name="legal_move">
    <mxGraphModel dx="1434" dy="746" grid="1" gridSize="10" guides="1" tooltips="1" connect="1" arrows="1" fold="1" page="1" pageScale="1" pageWidth="827" pageHeight="1169" math="0" shadow="0">
      <root>
        <mxCell id="0" />
        <mxCell id="1" parent="0" />
        <mxCell id="0Lpdea9yQAjy7s6b21Wy-6" style="edgeStyle=orthogonalEdgeStyle;rounded=0;orthogonalLoop=1;jettySize=auto;html=1;exitX=0.5;exitY=1;exitDx=0;exitDy=0;exitPerimeter=0;entryX=0.5;entryY=0;entryDx=0;entryDy=0;" edge="1" parent="1" source="VSlfoh2V1oHX-24j82qg-1" target="wN9PWILPPpXFTJypkFzo-1">
          <mxGeometry relative="1" as="geometry" />
        </mxCell>
        <mxCell id="VSlfoh2V1oHX-24j82qg-1" value="legal_move(board, movement)" style="strokeWidth=2;html=1;shape=mxgraph.flowchart.terminator;whiteSpace=wrap;" vertex="1" parent="1">
          <mxGeometry x="310" y="110" width="120" height="50" as="geometry" />
        </mxCell>
        <mxCell id="wN9PWILPPpXFTJypkFzo-1" value="legal move?" style="rhombus;whiteSpace=wrap;html=1;" vertex="1" parent="1">
          <mxGeometry x="310" y="200" width="120" height="50" as="geometry" />
        </mxCell>
        <mxCell id="0Lpdea9yQAjy7s6b21Wy-1" value="Return &lt;br&gt;True" style="strokeWidth=2;html=1;shape=mxgraph.flowchart.terminator;whiteSpace=wrap;" vertex="1" parent="1">
          <mxGeometry x="420" y="290" width="110" height="50" as="geometry" />
        </mxCell>
        <mxCell id="0Lpdea9yQAjy7s6b21Wy-2" value="Return &lt;br&gt;False" style="strokeWidth=2;html=1;shape=mxgraph.flowchart.terminator;whiteSpace=wrap;" vertex="1" parent="1">
          <mxGeometry x="220" y="290" width="110" height="50" as="geometry" />
        </mxCell>
        <mxCell id="0Lpdea9yQAjy7s6b21Wy-4" style="edgeStyle=orthogonalEdgeStyle;rounded=0;orthogonalLoop=1;jettySize=auto;html=1;exitX=1;exitY=0.5;exitDx=0;exitDy=0;entryX=0.5;entryY=0;entryDx=0;entryDy=0;entryPerimeter=0;" edge="1" parent="1" source="wN9PWILPPpXFTJypkFzo-1" target="0Lpdea9yQAjy7s6b21Wy-1">
          <mxGeometry relative="1" as="geometry" />
        </mxCell>
        <mxCell id="0Lpdea9yQAjy7s6b21Wy-5" style="edgeStyle=orthogonalEdgeStyle;rounded=0;orthogonalLoop=1;jettySize=auto;html=1;exitX=0;exitY=0.5;exitDx=0;exitDy=0;entryX=0.5;entryY=0;entryDx=0;entryDy=0;entryPerimeter=0;" edge="1" parent="1" source="wN9PWILPPpXFTJypkFzo-1" target="0Lpdea9yQAjy7s6b21Wy-2">
          <mxGeometry relative="1" as="geometry" />
        </mxCell>
        <mxCell id="0Lpdea9yQAjy7s6b21Wy-7" value="Yes" style="text;html=1;strokeColor=none;fillColor=none;align=center;verticalAlign=middle;whiteSpace=wrap;rounded=0;" vertex="1" parent="1">
          <mxGeometry x="440" y="200" width="20" height="20" as="geometry" />
        </mxCell>
        <mxCell id="0Lpdea9yQAjy7s6b21Wy-9" value="No" style="text;html=1;strokeColor=none;fillColor=none;align=center;verticalAlign=middle;whiteSpace=wrap;rounded=0;" vertex="1" parent="1">
          <mxGeometry x="290" y="200" width="20" height="20" as="geometry" />
        </mxCell>
      </root>
    </mxGraphModel>
  </diagram>
  <diagram id="nbTwEXtnODBQMMsOJKxf" name="move_agent">
    <mxGraphModel dx="1434" dy="746" grid="1" gridSize="10" guides="1" tooltips="1" connect="1" arrows="1" fold="1" page="1" pageScale="1" pageWidth="827" pageHeight="1169" math="0" shadow="0">
      <root>
        <mxCell id="0" />
        <mxCell id="1" parent="0" />
        <mxCell id="lx9NTM3JpPJvMifiU4hg-1" style="edgeStyle=orthogonalEdgeStyle;rounded=0;orthogonalLoop=1;jettySize=auto;html=1;exitX=0.5;exitY=1;exitDx=0;exitDy=0;exitPerimeter=0;entryX=0.5;entryY=0;entryDx=0;entryDy=0;" edge="1" parent="1" source="lx9NTM3JpPJvMifiU4hg-2">
          <mxGeometry relative="1" as="geometry">
            <mxPoint x="405" y="160" as="targetPoint" />
          </mxGeometry>
        </mxCell>
        <mxCell id="lx9NTM3JpPJvMifiU4hg-2" value="move_agent(board, movement, turn)" style="strokeWidth=2;html=1;shape=mxgraph.flowchart.terminator;whiteSpace=wrap;" vertex="1" parent="1">
          <mxGeometry x="345" y="70" width="120" height="50" as="geometry" />
        </mxCell>
        <mxCell id="lx9NTM3JpPJvMifiU4hg-5" value="Return &lt;br&gt;board, turn" style="strokeWidth=2;html=1;shape=mxgraph.flowchart.terminator;whiteSpace=wrap;" vertex="1" parent="1">
          <mxGeometry x="350" y="340" width="110" height="50" as="geometry" />
        </mxCell>
        <mxCell id="lx9NTM3JpPJvMifiU4hg-12" style="edgeStyle=orthogonalEdgeStyle;rounded=0;orthogonalLoop=1;jettySize=auto;html=1;exitX=0.5;exitY=1;exitDx=0;exitDy=0;entryX=0.5;entryY=0;entryDx=0;entryDy=0;" edge="1" parent="1" source="lx9NTM3JpPJvMifiU4hg-10" target="lx9NTM3JpPJvMifiU4hg-11">
          <mxGeometry relative="1" as="geometry" />
        </mxCell>
        <mxCell id="lx9NTM3JpPJvMifiU4hg-10" value="board = board.push(movement)" style="rounded=0;whiteSpace=wrap;html=1;" vertex="1" parent="1">
          <mxGeometry x="340" y="160" width="130" height="60" as="geometry" />
        </mxCell>
        <mxCell id="lx9NTM3JpPJvMifiU4hg-13" style="edgeStyle=orthogonalEdgeStyle;rounded=0;orthogonalLoop=1;jettySize=auto;html=1;exitX=0.5;exitY=1;exitDx=0;exitDy=0;" edge="1" parent="1" source="lx9NTM3JpPJvMifiU4hg-11" target="lx9NTM3JpPJvMifiU4hg-5">
          <mxGeometry relative="1" as="geometry" />
        </mxCell>
        <mxCell id="lx9NTM3JpPJvMifiU4hg-11" value="turn += 1" style="rounded=0;whiteSpace=wrap;html=1;" vertex="1" parent="1">
          <mxGeometry x="340" y="250" width="130" height="60" as="geometry" />
        </mxCell>
      </root>
    </mxGraphModel>
  </diagram>
  <diagram id="mOD-hTM-65sO5ZZmRDu8" name="move_player">
    <mxGraphModel dx="1434" dy="746" grid="1" gridSize="10" guides="1" tooltips="1" connect="1" arrows="1" fold="1" page="1" pageScale="1" pageWidth="827" pageHeight="1169" math="0" shadow="0">
      <root>
        <mxCell id="0" />
        <mxCell id="1" parent="0" />
        <mxCell id="4ZAWbhvAjFmtBdGW8qKH-1" value="move_player(board, movement, turn)" style="strokeWidth=2;html=1;shape=mxgraph.flowchart.terminator;whiteSpace=wrap;" vertex="1" parent="1">
          <mxGeometry x="190" y="30" width="120" height="50" as="geometry" />
        </mxCell>
        <mxCell id="4ZAWbhvAjFmtBdGW8qKH-2" value="" style="endArrow=classic;html=1;rounded=0;exitX=0.5;exitY=1;exitDx=0;exitDy=0;exitPerimeter=0;entryX=0.5;entryY=0;entryDx=0;entryDy=0;" edge="1" parent="1" source="4ZAWbhvAjFmtBdGW8qKH-1">
          <mxGeometry width="50" height="50" relative="1" as="geometry">
            <mxPoint x="260" y="210" as="sourcePoint" />
            <mxPoint x="250" y="130" as="targetPoint" />
          </mxGeometry>
        </mxCell>
        <mxCell id="jNsOFoMXWHAXXCffERlS-6" style="edgeStyle=orthogonalEdgeStyle;rounded=0;orthogonalLoop=1;jettySize=auto;html=1;exitX=1;exitY=0.5;exitDx=0;exitDy=0;entryX=0.5;entryY=0;entryDx=0;entryDy=0;" edge="1" parent="1" source="0LFs-Tr4sIEowHKqVpE8-1" target="jNsOFoMXWHAXXCffERlS-3">
          <mxGeometry relative="1" as="geometry" />
        </mxCell>
        <mxCell id="0LFs-Tr4sIEowHKqVpE8-1" value="lagal_move()" style="shape=process;whiteSpace=wrap;html=1;backgroundOutline=1;" vertex="1" parent="1">
          <mxGeometry x="190" y="130" width="120" height="50" as="geometry" />
        </mxCell>
        <mxCell id="jNsOFoMXWHAXXCffERlS-1" value="Return &lt;br&gt;True, board, turn" style="strokeWidth=2;html=1;shape=mxgraph.flowchart.terminator;whiteSpace=wrap;" vertex="1" parent="1">
          <mxGeometry x="360" y="370" width="110" height="50" as="geometry" />
        </mxCell>
        <mxCell id="jNsOFoMXWHAXXCffERlS-2" style="edgeStyle=orthogonalEdgeStyle;rounded=0;orthogonalLoop=1;jettySize=auto;html=1;exitX=0.5;exitY=1;exitDx=0;exitDy=0;entryX=0.5;entryY=0;entryDx=0;entryDy=0;" edge="1" parent="1" source="jNsOFoMXWHAXXCffERlS-3" target="jNsOFoMXWHAXXCffERlS-5">
          <mxGeometry relative="1" as="geometry" />
        </mxCell>
        <mxCell id="jNsOFoMXWHAXXCffERlS-3" value="board = board.push(movement)" style="rounded=0;whiteSpace=wrap;html=1;" vertex="1" parent="1">
          <mxGeometry x="350" y="190" width="130" height="60" as="geometry" />
        </mxCell>
        <mxCell id="jNsOFoMXWHAXXCffERlS-4" style="edgeStyle=orthogonalEdgeStyle;rounded=0;orthogonalLoop=1;jettySize=auto;html=1;exitX=0.5;exitY=1;exitDx=0;exitDy=0;" edge="1" parent="1" source="jNsOFoMXWHAXXCffERlS-5" target="jNsOFoMXWHAXXCffERlS-1">
          <mxGeometry relative="1" as="geometry" />
        </mxCell>
        <mxCell id="jNsOFoMXWHAXXCffERlS-5" value="turn += 1" style="rounded=0;whiteSpace=wrap;html=1;" vertex="1" parent="1">
          <mxGeometry x="350" y="280" width="130" height="60" as="geometry" />
        </mxCell>
        <mxCell id="jNsOFoMXWHAXXCffERlS-7" value="True" style="text;html=1;strokeColor=none;fillColor=none;align=center;verticalAlign=middle;whiteSpace=wrap;rounded=0;" vertex="1" parent="1">
          <mxGeometry x="330" y="130" width="60" height="30" as="geometry" />
        </mxCell>
        <mxCell id="jNsOFoMXWHAXXCffERlS-8" value="Return &lt;br&gt;True, board, turn" style="strokeWidth=2;html=1;shape=mxgraph.flowchart.terminator;whiteSpace=wrap;" vertex="1" parent="1">
          <mxGeometry x="50" y="190" width="110" height="50" as="geometry" />
        </mxCell>
        <mxCell id="jNsOFoMXWHAXXCffERlS-9" style="edgeStyle=orthogonalEdgeStyle;rounded=0;orthogonalLoop=1;jettySize=auto;html=1;exitX=0;exitY=0.5;exitDx=0;exitDy=0;entryX=0.5;entryY=0;entryDx=0;entryDy=0;entryPerimeter=0;" edge="1" parent="1" source="0LFs-Tr4sIEowHKqVpE8-1" target="jNsOFoMXWHAXXCffERlS-8">
          <mxGeometry relative="1" as="geometry" />
        </mxCell>
        <mxCell id="jNsOFoMXWHAXXCffERlS-10" value="False" style="text;html=1;strokeColor=none;fillColor=none;align=center;verticalAlign=middle;whiteSpace=wrap;rounded=0;" vertex="1" parent="1">
          <mxGeometry x="120" y="130" width="60" height="30" as="geometry" />
        </mxCell>
      </root>
    </mxGraphModel>
  </diagram>
  <diagram id="ibCJ0b1OEHdmxx2FLIoT" name="return_reward_white()">
    <mxGraphModel dx="1434" dy="746" grid="1" gridSize="10" guides="1" tooltips="1" connect="1" arrows="1" fold="1" page="1" pageScale="1" pageWidth="827" pageHeight="1169" math="0" shadow="0">
      <root>
        <mxCell id="0" />
        <mxCell id="1" parent="0" />
        <mxCell id="U9sND6yyME3JCGJVZFaZ-1" value="return_reward_white(&lt;br&gt;result_judgement)" style="strokeWidth=2;html=1;shape=mxgraph.flowchart.terminator;whiteSpace=wrap;" vertex="1" parent="1">
          <mxGeometry x="344" y="40" width="130" height="60" as="geometry" />
        </mxCell>
        <mxCell id="U9sND6yyME3JCGJVZFaZ-2" value="" style="endArrow=classic;html=1;rounded=0;exitX=0.5;exitY=1;exitDx=0;exitDy=0;exitPerimeter=0;entryX=0.5;entryY=0;entryDx=0;entryDy=0;" edge="1" parent="1" source="U9sND6yyME3JCGJVZFaZ-1" target="U9sND6yyME3JCGJVZFaZ-15">
          <mxGeometry width="50" height="50" relative="1" as="geometry">
            <mxPoint x="419" y="220" as="sourcePoint" />
            <mxPoint x="449" y="200" as="targetPoint" />
          </mxGeometry>
        </mxCell>
        <mxCell id="fBvk--EiEn9N6N9EU_Mn-1" style="edgeStyle=orthogonalEdgeStyle;rounded=0;orthogonalLoop=1;jettySize=auto;html=1;exitX=0.5;exitY=1;exitDx=0;exitDy=0;entryX=0.5;entryY=0;entryDx=0;entryDy=0;" edge="1" parent="1" source="U9sND6yyME3JCGJVZFaZ-15" target="U9sND6yyME3JCGJVZFaZ-16">
          <mxGeometry relative="1" as="geometry" />
        </mxCell>
        <mxCell id="U9sND6yyME3JCGJVZFaZ-15" value="judgement_end" style="shape=process;whiteSpace=wrap;html=1;backgroundOutline=1;" vertex="1" parent="1">
          <mxGeometry x="349" y="160" width="120" height="40" as="geometry" />
        </mxCell>
        <mxCell id="fBvk--EiEn9N6N9EU_Mn-2" style="edgeStyle=orthogonalEdgeStyle;rounded=0;orthogonalLoop=1;jettySize=auto;html=1;exitX=0;exitY=0.5;exitDx=0;exitDy=0;entryX=0.5;entryY=0;entryDx=0;entryDy=0;" edge="1" parent="1" source="U9sND6yyME3JCGJVZFaZ-16" target="U9sND6yyME3JCGJVZFaZ-18">
          <mxGeometry relative="1" as="geometry" />
        </mxCell>
        <mxCell id="fBvk--EiEn9N6N9EU_Mn-3" style="edgeStyle=orthogonalEdgeStyle;rounded=0;orthogonalLoop=1;jettySize=auto;html=1;exitX=1;exitY=0.5;exitDx=0;exitDy=0;entryX=0.5;entryY=0;entryDx=0;entryDy=0;" edge="1" parent="1" source="U9sND6yyME3JCGJVZFaZ-16" target="U9sND6yyME3JCGJVZFaZ-19">
          <mxGeometry relative="1" as="geometry" />
        </mxCell>
        <mxCell id="U9sND6yyME3JCGJVZFaZ-16" value="white or black" style="rhombus;whiteSpace=wrap;html=1;" vertex="1" parent="1">
          <mxGeometry x="354" y="240" width="110" height="50" as="geometry" />
        </mxCell>
        <mxCell id="U9sND6yyME3JCGJVZFaZ-18" value="checkmate or draw" style="rhombus;whiteSpace=wrap;html=1;" vertex="1" parent="1">
          <mxGeometry x="200" y="300" width="144" height="60" as="geometry" />
        </mxCell>
        <mxCell id="U9sND6yyME3JCGJVZFaZ-23" style="edgeStyle=orthogonalEdgeStyle;rounded=0;orthogonalLoop=1;jettySize=auto;html=1;exitX=0;exitY=0.5;exitDx=0;exitDy=0;" edge="1" parent="1" source="U9sND6yyME3JCGJVZFaZ-19">
          <mxGeometry relative="1" as="geometry">
            <mxPoint x="410" y="380" as="targetPoint" />
          </mxGeometry>
        </mxCell>
        <mxCell id="U9sND6yyME3JCGJVZFaZ-19" value="checkmate or draw" style="rhombus;whiteSpace=wrap;html=1;" vertex="1" parent="1">
          <mxGeometry x="480" y="300" width="144" height="60" as="geometry" />
        </mxCell>
        <mxCell id="U9sND6yyME3JCGJVZFaZ-21" value="return -0.2" style="strokeWidth=2;html=1;shape=mxgraph.flowchart.terminator;whiteSpace=wrap;" vertex="1" parent="1">
          <mxGeometry x="359" y="380" width="100" height="40" as="geometry" />
        </mxCell>
        <mxCell id="U9sND6yyME3JCGJVZFaZ-22" style="edgeStyle=orthogonalEdgeStyle;rounded=0;orthogonalLoop=1;jettySize=auto;html=1;exitX=1;exitY=0.5;exitDx=0;exitDy=0;entryX=0.5;entryY=0;entryDx=0;entryDy=0;entryPerimeter=0;" edge="1" parent="1" source="U9sND6yyME3JCGJVZFaZ-18" target="U9sND6yyME3JCGJVZFaZ-21">
          <mxGeometry relative="1" as="geometry" />
        </mxCell>
        <mxCell id="U9sND6yyME3JCGJVZFaZ-24" value="return -1" style="strokeWidth=2;html=1;shape=mxgraph.flowchart.terminator;whiteSpace=wrap;" vertex="1" parent="1">
          <mxGeometry x="222" y="420" width="100" height="40" as="geometry" />
        </mxCell>
        <mxCell id="U9sND6yyME3JCGJVZFaZ-25" value="return +1" style="strokeWidth=2;html=1;shape=mxgraph.flowchart.terminator;whiteSpace=wrap;" vertex="1" parent="1">
          <mxGeometry x="502" y="420" width="100" height="40" as="geometry" />
        </mxCell>
        <mxCell id="U9sND6yyME3JCGJVZFaZ-26" value="draw" style="text;html=1;strokeColor=none;fillColor=none;align=center;verticalAlign=middle;whiteSpace=wrap;rounded=0;" vertex="1" parent="1">
          <mxGeometry x="341" y="306" width="60" height="30" as="geometry" />
        </mxCell>
        <mxCell id="U9sND6yyME3JCGJVZFaZ-27" value="draw" style="text;html=1;strokeColor=none;fillColor=none;align=center;verticalAlign=middle;whiteSpace=wrap;rounded=0;" vertex="1" parent="1">
          <mxGeometry x="414" y="306" width="60" height="30" as="geometry" />
        </mxCell>
        <mxCell id="U9sND6yyME3JCGJVZFaZ-28" style="edgeStyle=orthogonalEdgeStyle;rounded=0;orthogonalLoop=1;jettySize=auto;html=1;exitX=0.5;exitY=1;exitDx=0;exitDy=0;entryX=0.5;entryY=0;entryDx=0;entryDy=0;entryPerimeter=0;" edge="1" parent="1" source="U9sND6yyME3JCGJVZFaZ-18" target="U9sND6yyME3JCGJVZFaZ-24">
          <mxGeometry relative="1" as="geometry" />
        </mxCell>
        <mxCell id="U9sND6yyME3JCGJVZFaZ-29" style="edgeStyle=orthogonalEdgeStyle;rounded=0;orthogonalLoop=1;jettySize=auto;html=1;exitX=0.5;exitY=1;exitDx=0;exitDy=0;entryX=0.5;entryY=0;entryDx=0;entryDy=0;entryPerimeter=0;" edge="1" parent="1" source="U9sND6yyME3JCGJVZFaZ-19" target="U9sND6yyME3JCGJVZFaZ-25">
          <mxGeometry relative="1" as="geometry" />
        </mxCell>
        <mxCell id="U9sND6yyME3JCGJVZFaZ-30" value="return -0.01" style="strokeWidth=2;html=1;shape=mxgraph.flowchart.terminator;whiteSpace=wrap;" vertex="1" parent="1">
          <mxGeometry x="359" y="540" width="100" height="40" as="geometry" />
        </mxCell>
        <mxCell id="U9sND6yyME3JCGJVZFaZ-31" style="edgeStyle=orthogonalEdgeStyle;rounded=0;orthogonalLoop=1;jettySize=auto;html=1;exitX=0;exitY=0.5;exitDx=0;exitDy=0;entryX=0;entryY=0.5;entryDx=0;entryDy=0;entryPerimeter=0;" edge="1" parent="1" source="U9sND6yyME3JCGJVZFaZ-18" target="U9sND6yyME3JCGJVZFaZ-30">
          <mxGeometry relative="1" as="geometry">
            <Array as="points">
              <mxPoint x="150" y="330" />
              <mxPoint x="150" y="560" />
            </Array>
          </mxGeometry>
        </mxCell>
        <mxCell id="U9sND6yyME3JCGJVZFaZ-32" style="edgeStyle=orthogonalEdgeStyle;rounded=0;orthogonalLoop=1;jettySize=auto;html=1;exitX=1;exitY=0.5;exitDx=0;exitDy=0;entryX=1;entryY=0.5;entryDx=0;entryDy=0;entryPerimeter=0;" edge="1" parent="1" source="U9sND6yyME3JCGJVZFaZ-19" target="U9sND6yyME3JCGJVZFaZ-30">
          <mxGeometry relative="1" as="geometry">
            <Array as="points">
              <mxPoint x="680" y="330" />
              <mxPoint x="680" y="560" />
            </Array>
          </mxGeometry>
        </mxCell>
        <mxCell id="U9sND6yyME3JCGJVZFaZ-33" value="mate" style="text;html=1;strokeColor=none;fillColor=none;align=center;verticalAlign=middle;whiteSpace=wrap;rounded=0;" vertex="1" parent="1">
          <mxGeometry x="222" y="370" width="60" height="30" as="geometry" />
        </mxCell>
        <mxCell id="U9sND6yyME3JCGJVZFaZ-35" value="mate" style="text;html=1;strokeColor=none;fillColor=none;align=center;verticalAlign=middle;whiteSpace=wrap;rounded=0;" vertex="1" parent="1">
          <mxGeometry x="550" y="370" width="60" height="30" as="geometry" />
        </mxCell>
        <mxCell id="U9sND6yyME3JCGJVZFaZ-36" value="nothing" style="text;html=1;strokeColor=none;fillColor=none;align=center;verticalAlign=middle;whiteSpace=wrap;rounded=0;" vertex="1" parent="1">
          <mxGeometry x="150" y="300" width="60" height="30" as="geometry" />
        </mxCell>
        <mxCell id="U9sND6yyME3JCGJVZFaZ-37" value="nothing" style="text;html=1;strokeColor=none;fillColor=none;align=center;verticalAlign=middle;whiteSpace=wrap;rounded=0;" vertex="1" parent="1">
          <mxGeometry x="620" y="300" width="60" height="30" as="geometry" />
        </mxCell>
        <mxCell id="fBvk--EiEn9N6N9EU_Mn-4" value="white" style="text;html=1;strokeColor=none;fillColor=none;align=center;verticalAlign=middle;whiteSpace=wrap;rounded=0;" vertex="1" parent="1">
          <mxGeometry x="289" y="240" width="60" height="30" as="geometry" />
        </mxCell>
        <mxCell id="fBvk--EiEn9N6N9EU_Mn-5" value="black" style="text;html=1;strokeColor=none;fillColor=none;align=center;verticalAlign=middle;whiteSpace=wrap;rounded=0;" vertex="1" parent="1">
          <mxGeometry x="469" y="240" width="60" height="30" as="geometry" />
        </mxCell>
      </root>
    </mxGraphModel>
  </diagram>
  <diagram name="return_reward_black()" id="NdCXuk3wyhpgHeUH6BdX">
    <mxGraphModel dx="1434" dy="746" grid="1" gridSize="10" guides="1" tooltips="1" connect="1" arrows="1" fold="1" page="1" pageScale="1" pageWidth="827" pageHeight="1169" math="0" shadow="0">
      <root>
        <mxCell id="R925XIpLxTAsUqfkPrGQ-0" />
        <mxCell id="R925XIpLxTAsUqfkPrGQ-1" parent="R925XIpLxTAsUqfkPrGQ-0" />
        <mxCell id="R925XIpLxTAsUqfkPrGQ-2" value="return_reward_black(&lt;br&gt;result_judgement)" style="strokeWidth=2;html=1;shape=mxgraph.flowchart.terminator;whiteSpace=wrap;" vertex="1" parent="R925XIpLxTAsUqfkPrGQ-1">
          <mxGeometry x="344" y="40" width="130" height="60" as="geometry" />
        </mxCell>
        <mxCell id="R925XIpLxTAsUqfkPrGQ-3" value="" style="endArrow=classic;html=1;rounded=0;exitX=0.5;exitY=1;exitDx=0;exitDy=0;exitPerimeter=0;entryX=0.5;entryY=0;entryDx=0;entryDy=0;" edge="1" parent="R925XIpLxTAsUqfkPrGQ-1" source="R925XIpLxTAsUqfkPrGQ-2" target="R925XIpLxTAsUqfkPrGQ-5">
          <mxGeometry width="50" height="50" relative="1" as="geometry">
            <mxPoint x="419" y="220" as="sourcePoint" />
            <mxPoint x="449" y="200" as="targetPoint" />
          </mxGeometry>
        </mxCell>
        <mxCell id="R925XIpLxTAsUqfkPrGQ-4" style="edgeStyle=orthogonalEdgeStyle;rounded=0;orthogonalLoop=1;jettySize=auto;html=1;exitX=0.5;exitY=1;exitDx=0;exitDy=0;entryX=0.5;entryY=0;entryDx=0;entryDy=0;" edge="1" parent="R925XIpLxTAsUqfkPrGQ-1" source="R925XIpLxTAsUqfkPrGQ-5" target="R925XIpLxTAsUqfkPrGQ-8">
          <mxGeometry relative="1" as="geometry" />
        </mxCell>
        <mxCell id="R925XIpLxTAsUqfkPrGQ-5" value="judgement_end" style="shape=process;whiteSpace=wrap;html=1;backgroundOutline=1;" vertex="1" parent="R925XIpLxTAsUqfkPrGQ-1">
          <mxGeometry x="349" y="160" width="120" height="40" as="geometry" />
        </mxCell>
        <mxCell id="R925XIpLxTAsUqfkPrGQ-6" style="edgeStyle=orthogonalEdgeStyle;rounded=0;orthogonalLoop=1;jettySize=auto;html=1;exitX=0;exitY=0.5;exitDx=0;exitDy=0;entryX=0.5;entryY=0;entryDx=0;entryDy=0;" edge="1" parent="R925XIpLxTAsUqfkPrGQ-1" source="R925XIpLxTAsUqfkPrGQ-8" target="R925XIpLxTAsUqfkPrGQ-9">
          <mxGeometry relative="1" as="geometry" />
        </mxCell>
        <mxCell id="R925XIpLxTAsUqfkPrGQ-7" style="edgeStyle=orthogonalEdgeStyle;rounded=0;orthogonalLoop=1;jettySize=auto;html=1;exitX=1;exitY=0.5;exitDx=0;exitDy=0;entryX=0.5;entryY=0;entryDx=0;entryDy=0;" edge="1" parent="R925XIpLxTAsUqfkPrGQ-1" source="R925XIpLxTAsUqfkPrGQ-8" target="R925XIpLxTAsUqfkPrGQ-11">
          <mxGeometry relative="1" as="geometry" />
        </mxCell>
        <mxCell id="R925XIpLxTAsUqfkPrGQ-8" value="white or black" style="rhombus;whiteSpace=wrap;html=1;" vertex="1" parent="R925XIpLxTAsUqfkPrGQ-1">
          <mxGeometry x="354" y="240" width="110" height="50" as="geometry" />
        </mxCell>
        <mxCell id="R925XIpLxTAsUqfkPrGQ-9" value="checkmate or draw" style="rhombus;whiteSpace=wrap;html=1;" vertex="1" parent="R925XIpLxTAsUqfkPrGQ-1">
          <mxGeometry x="200" y="300" width="144" height="60" as="geometry" />
        </mxCell>
        <mxCell id="R925XIpLxTAsUqfkPrGQ-10" style="edgeStyle=orthogonalEdgeStyle;rounded=0;orthogonalLoop=1;jettySize=auto;html=1;exitX=0;exitY=0.5;exitDx=0;exitDy=0;" edge="1" parent="R925XIpLxTAsUqfkPrGQ-1" source="R925XIpLxTAsUqfkPrGQ-11">
          <mxGeometry relative="1" as="geometry">
            <mxPoint x="410" y="380" as="targetPoint" />
          </mxGeometry>
        </mxCell>
        <mxCell id="R925XIpLxTAsUqfkPrGQ-11" value="checkmate or draw" style="rhombus;whiteSpace=wrap;html=1;" vertex="1" parent="R925XIpLxTAsUqfkPrGQ-1">
          <mxGeometry x="480" y="300" width="144" height="60" as="geometry" />
        </mxCell>
        <mxCell id="R925XIpLxTAsUqfkPrGQ-12" value="return -0.2" style="strokeWidth=2;html=1;shape=mxgraph.flowchart.terminator;whiteSpace=wrap;" vertex="1" parent="R925XIpLxTAsUqfkPrGQ-1">
          <mxGeometry x="359" y="380" width="100" height="40" as="geometry" />
        </mxCell>
        <mxCell id="R925XIpLxTAsUqfkPrGQ-13" style="edgeStyle=orthogonalEdgeStyle;rounded=0;orthogonalLoop=1;jettySize=auto;html=1;exitX=1;exitY=0.5;exitDx=0;exitDy=0;entryX=0.5;entryY=0;entryDx=0;entryDy=0;entryPerimeter=0;" edge="1" parent="R925XIpLxTAsUqfkPrGQ-1" source="R925XIpLxTAsUqfkPrGQ-9" target="R925XIpLxTAsUqfkPrGQ-12">
          <mxGeometry relative="1" as="geometry" />
        </mxCell>
        <mxCell id="R925XIpLxTAsUqfkPrGQ-14" value="return +1" style="strokeWidth=2;html=1;shape=mxgraph.flowchart.terminator;whiteSpace=wrap;" vertex="1" parent="R925XIpLxTAsUqfkPrGQ-1">
          <mxGeometry x="222" y="420" width="100" height="40" as="geometry" />
        </mxCell>
        <mxCell id="R925XIpLxTAsUqfkPrGQ-15" value="return -1" style="strokeWidth=2;html=1;shape=mxgraph.flowchart.terminator;whiteSpace=wrap;" vertex="1" parent="R925XIpLxTAsUqfkPrGQ-1">
          <mxGeometry x="502" y="420" width="100" height="40" as="geometry" />
        </mxCell>
        <mxCell id="R925XIpLxTAsUqfkPrGQ-16" value="draw" style="text;html=1;strokeColor=none;fillColor=none;align=center;verticalAlign=middle;whiteSpace=wrap;rounded=0;" vertex="1" parent="R925XIpLxTAsUqfkPrGQ-1">
          <mxGeometry x="341" y="306" width="60" height="30" as="geometry" />
        </mxCell>
        <mxCell id="R925XIpLxTAsUqfkPrGQ-17" value="draw" style="text;html=1;strokeColor=none;fillColor=none;align=center;verticalAlign=middle;whiteSpace=wrap;rounded=0;" vertex="1" parent="R925XIpLxTAsUqfkPrGQ-1">
          <mxGeometry x="414" y="306" width="60" height="30" as="geometry" />
        </mxCell>
        <mxCell id="R925XIpLxTAsUqfkPrGQ-18" style="edgeStyle=orthogonalEdgeStyle;rounded=0;orthogonalLoop=1;jettySize=auto;html=1;exitX=0.5;exitY=1;exitDx=0;exitDy=0;entryX=0.5;entryY=0;entryDx=0;entryDy=0;entryPerimeter=0;" edge="1" parent="R925XIpLxTAsUqfkPrGQ-1" source="R925XIpLxTAsUqfkPrGQ-9" target="R925XIpLxTAsUqfkPrGQ-14">
          <mxGeometry relative="1" as="geometry" />
        </mxCell>
        <mxCell id="R925XIpLxTAsUqfkPrGQ-19" style="edgeStyle=orthogonalEdgeStyle;rounded=0;orthogonalLoop=1;jettySize=auto;html=1;exitX=0.5;exitY=1;exitDx=0;exitDy=0;entryX=0.5;entryY=0;entryDx=0;entryDy=0;entryPerimeter=0;" edge="1" parent="R925XIpLxTAsUqfkPrGQ-1" source="R925XIpLxTAsUqfkPrGQ-11" target="R925XIpLxTAsUqfkPrGQ-15">
          <mxGeometry relative="1" as="geometry" />
        </mxCell>
        <mxCell id="R925XIpLxTAsUqfkPrGQ-20" value="return -0.01" style="strokeWidth=2;html=1;shape=mxgraph.flowchart.terminator;whiteSpace=wrap;" vertex="1" parent="R925XIpLxTAsUqfkPrGQ-1">
          <mxGeometry x="359" y="540" width="100" height="40" as="geometry" />
        </mxCell>
        <mxCell id="R925XIpLxTAsUqfkPrGQ-21" style="edgeStyle=orthogonalEdgeStyle;rounded=0;orthogonalLoop=1;jettySize=auto;html=1;exitX=0;exitY=0.5;exitDx=0;exitDy=0;entryX=0;entryY=0.5;entryDx=0;entryDy=0;entryPerimeter=0;" edge="1" parent="R925XIpLxTAsUqfkPrGQ-1" source="R925XIpLxTAsUqfkPrGQ-9" target="R925XIpLxTAsUqfkPrGQ-20">
          <mxGeometry relative="1" as="geometry">
            <Array as="points">
              <mxPoint x="150" y="330" />
              <mxPoint x="150" y="560" />
            </Array>
          </mxGeometry>
        </mxCell>
        <mxCell id="R925XIpLxTAsUqfkPrGQ-22" style="edgeStyle=orthogonalEdgeStyle;rounded=0;orthogonalLoop=1;jettySize=auto;html=1;exitX=1;exitY=0.5;exitDx=0;exitDy=0;entryX=1;entryY=0.5;entryDx=0;entryDy=0;entryPerimeter=0;" edge="1" parent="R925XIpLxTAsUqfkPrGQ-1" source="R925XIpLxTAsUqfkPrGQ-11" target="R925XIpLxTAsUqfkPrGQ-20">
          <mxGeometry relative="1" as="geometry">
            <Array as="points">
              <mxPoint x="680" y="330" />
              <mxPoint x="680" y="560" />
            </Array>
          </mxGeometry>
        </mxCell>
        <mxCell id="R925XIpLxTAsUqfkPrGQ-23" value="mate" style="text;html=1;strokeColor=none;fillColor=none;align=center;verticalAlign=middle;whiteSpace=wrap;rounded=0;" vertex="1" parent="R925XIpLxTAsUqfkPrGQ-1">
          <mxGeometry x="222" y="370" width="60" height="30" as="geometry" />
        </mxCell>
        <mxCell id="R925XIpLxTAsUqfkPrGQ-24" value="mate" style="text;html=1;strokeColor=none;fillColor=none;align=center;verticalAlign=middle;whiteSpace=wrap;rounded=0;" vertex="1" parent="R925XIpLxTAsUqfkPrGQ-1">
          <mxGeometry x="550" y="370" width="60" height="30" as="geometry" />
        </mxCell>
        <mxCell id="R925XIpLxTAsUqfkPrGQ-25" value="nothing" style="text;html=1;strokeColor=none;fillColor=none;align=center;verticalAlign=middle;whiteSpace=wrap;rounded=0;" vertex="1" parent="R925XIpLxTAsUqfkPrGQ-1">
          <mxGeometry x="150" y="300" width="60" height="30" as="geometry" />
        </mxCell>
        <mxCell id="R925XIpLxTAsUqfkPrGQ-26" value="nothing" style="text;html=1;strokeColor=none;fillColor=none;align=center;verticalAlign=middle;whiteSpace=wrap;rounded=0;" vertex="1" parent="R925XIpLxTAsUqfkPrGQ-1">
          <mxGeometry x="620" y="300" width="60" height="30" as="geometry" />
        </mxCell>
        <mxCell id="R925XIpLxTAsUqfkPrGQ-27" value="white" style="text;html=1;strokeColor=none;fillColor=none;align=center;verticalAlign=middle;whiteSpace=wrap;rounded=0;" vertex="1" parent="R925XIpLxTAsUqfkPrGQ-1">
          <mxGeometry x="289" y="240" width="60" height="30" as="geometry" />
        </mxCell>
        <mxCell id="R925XIpLxTAsUqfkPrGQ-28" value="black" style="text;html=1;strokeColor=none;fillColor=none;align=center;verticalAlign=middle;whiteSpace=wrap;rounded=0;" vertex="1" parent="R925XIpLxTAsUqfkPrGQ-1">
          <mxGeometry x="469" y="240" width="60" height="30" as="geometry" />
        </mxCell>
      </root>
    </mxGraphModel>
  </diagram>
  <diagram id="vq_7K_mEi0i7US_dLPIZ" name="judgement_state()">
    <mxGraphModel dx="607" dy="746" grid="1" gridSize="10" guides="1" tooltips="1" connect="1" arrows="1" fold="1" page="1" pageScale="1" pageWidth="827" pageHeight="1169" math="0" shadow="0">
      <root>
        <mxCell id="0" />
        <mxCell id="1" parent="0" />
        <mxCell id="W639l6x8u5oEK3cbte1F-1" style="edgeStyle=orthogonalEdgeStyle;rounded=0;orthogonalLoop=1;jettySize=auto;html=1;exitX=0.5;exitY=1;exitDx=0;exitDy=0;exitPerimeter=0;entryX=0.5;entryY=0;entryDx=0;entryDy=0;" edge="1" parent="1" source="W639l6x8u5oEK3cbte1F-2">
          <mxGeometry relative="1" as="geometry">
            <mxPoint x="1241" y="190" as="targetPoint" />
          </mxGeometry>
        </mxCell>
        <mxCell id="W639l6x8u5oEK3cbte1F-2" value="judgement_state(&lt;br&gt;board, color)" style="strokeWidth=2;html=1;shape=mxgraph.flowchart.terminator;whiteSpace=wrap;" vertex="1" parent="1">
          <mxGeometry x="1181" y="100" width="120" height="50" as="geometry" />
        </mxCell>
        <mxCell id="KVy6ZnTJUE07_E2snIcM-8" style="edgeStyle=orthogonalEdgeStyle;rounded=0;orthogonalLoop=1;jettySize=auto;html=1;exitX=0;exitY=0.5;exitDx=0;exitDy=0;entryX=0.5;entryY=0;entryDx=0;entryDy=0;" edge="1" parent="1" source="Vjq0O5LP9BNYlue_8Z7U-1" target="KVy6ZnTJUE07_E2snIcM-3">
          <mxGeometry relative="1" as="geometry" />
        </mxCell>
        <mxCell id="KVy6ZnTJUE07_E2snIcM-9" style="edgeStyle=orthogonalEdgeStyle;rounded=0;orthogonalLoop=1;jettySize=auto;html=1;exitX=1;exitY=0.5;exitDx=0;exitDy=0;" edge="1" parent="1" source="Vjq0O5LP9BNYlue_8Z7U-1" target="KVy6ZnTJUE07_E2snIcM-7">
          <mxGeometry relative="1" as="geometry" />
        </mxCell>
        <mxCell id="Vjq0O5LP9BNYlue_8Z7U-1" value="white or black" style="rhombus;whiteSpace=wrap;html=1;" vertex="1" parent="1">
          <mxGeometry x="1186" y="190" width="110" height="50" as="geometry" />
        </mxCell>
        <mxCell id="MHwBXP8RcJ7VzmI45mDV-1" value="return True" style="strokeWidth=2;html=1;shape=mxgraph.flowchart.terminator;whiteSpace=wrap;" vertex="1" parent="1">
          <mxGeometry x="880" y="375" width="100" height="40" as="geometry" />
        </mxCell>
        <mxCell id="KVy6ZnTJUE07_E2snIcM-2" value="white[state] = [action_list,&lt;br&gt;[0] * len(action_list),&lt;br&gt;[0] * len(action_list),&lt;br&gt;generate_probablity(),&lt;br&gt;[None]]" style="rounded=0;whiteSpace=wrap;html=1;" vertex="1" parent="1">
          <mxGeometry x="1019" y="465" width="230" height="90" as="geometry" />
        </mxCell>
        <mxCell id="KVy6ZnTJUE07_E2snIcM-14" style="edgeStyle=orthogonalEdgeStyle;rounded=0;orthogonalLoop=1;jettySize=auto;html=1;exitX=1;exitY=0.5;exitDx=0;exitDy=0;entryX=0.5;entryY=0;entryDx=0;entryDy=0;" edge="1" parent="1" source="KVy6ZnTJUE07_E2snIcM-3" target="_mztUGYwS75ONDGQnCrm-3">
          <mxGeometry relative="1" as="geometry">
            <mxPoint x="1140" y="340" as="targetPoint" />
          </mxGeometry>
        </mxCell>
        <mxCell id="KVy6ZnTJUE07_E2snIcM-3" value="state in white" style="rhombus;whiteSpace=wrap;html=1;" vertex="1" parent="1">
          <mxGeometry x="980" y="280" width="110" height="50" as="geometry" />
        </mxCell>
        <mxCell id="KVy6ZnTJUE07_E2snIcM-4" value="return True" style="strokeWidth=2;html=1;shape=mxgraph.flowchart.terminator;whiteSpace=wrap;" vertex="1" parent="1">
          <mxGeometry x="1296" y="375" width="100" height="40" as="geometry" />
        </mxCell>
        <mxCell id="KVy6ZnTJUE07_E2snIcM-6" value="black[state] = [action_list,&lt;br&gt;[0] * len(action_list),&lt;br&gt;[0] * len(action_list),&lt;br&gt;generate_probablity(),&lt;br&gt;[None]]" style="rounded=0;whiteSpace=wrap;html=1;" vertex="1" parent="1">
          <mxGeometry x="1435" y="465" width="230" height="90" as="geometry" />
        </mxCell>
        <mxCell id="KVy6ZnTJUE07_E2snIcM-10" style="edgeStyle=orthogonalEdgeStyle;rounded=0;orthogonalLoop=1;jettySize=auto;html=1;exitX=0;exitY=0.5;exitDx=0;exitDy=0;" edge="1" parent="1" source="KVy6ZnTJUE07_E2snIcM-7" target="KVy6ZnTJUE07_E2snIcM-4">
          <mxGeometry relative="1" as="geometry" />
        </mxCell>
        <mxCell id="_mztUGYwS75ONDGQnCrm-8" style="edgeStyle=orthogonalEdgeStyle;rounded=0;orthogonalLoop=1;jettySize=auto;html=1;exitX=1;exitY=0.5;exitDx=0;exitDy=0;entryX=0.5;entryY=0;entryDx=0;entryDy=0;" edge="1" parent="1" source="KVy6ZnTJUE07_E2snIcM-7" target="_mztUGYwS75ONDGQnCrm-7">
          <mxGeometry relative="1" as="geometry" />
        </mxCell>
        <mxCell id="KVy6ZnTJUE07_E2snIcM-7" value="state in black" style="rhombus;whiteSpace=wrap;html=1;" vertex="1" parent="1">
          <mxGeometry x="1396" y="280" width="110" height="50" as="geometry" />
        </mxCell>
        <mxCell id="KVy6ZnTJUE07_E2snIcM-13" style="edgeStyle=orthogonalEdgeStyle;rounded=0;orthogonalLoop=1;jettySize=auto;html=1;exitX=0;exitY=0.5;exitDx=0;exitDy=0;entryX=0.5;entryY=0;entryDx=0;entryDy=0;entryPerimeter=0;" edge="1" parent="1" source="KVy6ZnTJUE07_E2snIcM-3" target="MHwBXP8RcJ7VzmI45mDV-1">
          <mxGeometry relative="1" as="geometry" />
        </mxCell>
        <mxCell id="KVy6ZnTJUE07_E2snIcM-16" value="return False" style="strokeWidth=2;html=1;shape=mxgraph.flowchart.terminator;whiteSpace=wrap;" vertex="1" parent="1">
          <mxGeometry x="1084" y="585" width="100" height="40" as="geometry" />
        </mxCell>
        <mxCell id="KVy6ZnTJUE07_E2snIcM-17" value="return False" style="strokeWidth=2;html=1;shape=mxgraph.flowchart.terminator;whiteSpace=wrap;" vertex="1" parent="1">
          <mxGeometry x="1500" y="585" width="100" height="40" as="geometry" />
        </mxCell>
        <mxCell id="KVy6ZnTJUE07_E2snIcM-18" style="edgeStyle=orthogonalEdgeStyle;rounded=0;orthogonalLoop=1;jettySize=auto;html=1;exitX=0.5;exitY=1;exitDx=0;exitDy=0;entryX=0.5;entryY=0;entryDx=0;entryDy=0;entryPerimeter=0;" edge="1" parent="1" source="KVy6ZnTJUE07_E2snIcM-2" target="KVy6ZnTJUE07_E2snIcM-16">
          <mxGeometry relative="1" as="geometry" />
        </mxCell>
        <mxCell id="KVy6ZnTJUE07_E2snIcM-19" style="edgeStyle=orthogonalEdgeStyle;rounded=0;orthogonalLoop=1;jettySize=auto;html=1;exitX=0.5;exitY=1;exitDx=0;exitDy=0;entryX=0.5;entryY=0;entryDx=0;entryDy=0;entryPerimeter=0;" edge="1" parent="1" source="KVy6ZnTJUE07_E2snIcM-6" target="KVy6ZnTJUE07_E2snIcM-17">
          <mxGeometry relative="1" as="geometry" />
        </mxCell>
        <mxCell id="KVy6ZnTJUE07_E2snIcM-20" value="white" style="text;html=1;strokeColor=none;fillColor=none;align=center;verticalAlign=middle;whiteSpace=wrap;rounded=0;" vertex="1" parent="1">
          <mxGeometry x="1100" y="190" width="60" height="30" as="geometry" />
        </mxCell>
        <mxCell id="KVy6ZnTJUE07_E2snIcM-21" value="black" style="text;html=1;strokeColor=none;fillColor=none;align=center;verticalAlign=middle;whiteSpace=wrap;rounded=0;" vertex="1" parent="1">
          <mxGeometry x="1336" y="190" width="60" height="30" as="geometry" />
        </mxCell>
        <mxCell id="KVy6ZnTJUE07_E2snIcM-22" value="yes" style="text;html=1;strokeColor=none;fillColor=none;align=center;verticalAlign=middle;whiteSpace=wrap;rounded=0;" vertex="1" parent="1">
          <mxGeometry x="930" y="280" width="60" height="30" as="geometry" />
        </mxCell>
        <mxCell id="KVy6ZnTJUE07_E2snIcM-23" value="yes" style="text;html=1;strokeColor=none;fillColor=none;align=center;verticalAlign=middle;whiteSpace=wrap;rounded=0;" vertex="1" parent="1">
          <mxGeometry x="1340" y="280" width="60" height="30" as="geometry" />
        </mxCell>
        <mxCell id="KVy6ZnTJUE07_E2snIcM-24" value="no" style="text;html=1;strokeColor=none;fillColor=none;align=center;verticalAlign=middle;whiteSpace=wrap;rounded=0;" vertex="1" parent="1">
          <mxGeometry x="1074" y="280" width="60" height="30" as="geometry" />
        </mxCell>
        <mxCell id="KVy6ZnTJUE07_E2snIcM-25" value="no" style="text;html=1;strokeColor=none;fillColor=none;align=center;verticalAlign=middle;whiteSpace=wrap;rounded=0;" vertex="1" parent="1">
          <mxGeometry x="1490" y="280" width="60" height="30" as="geometry" />
        </mxCell>
        <mxCell id="_mztUGYwS75ONDGQnCrm-6" style="edgeStyle=orthogonalEdgeStyle;rounded=0;orthogonalLoop=1;jettySize=auto;html=1;exitX=0.5;exitY=1;exitDx=0;exitDy=0;entryX=0.5;entryY=0;entryDx=0;entryDy=0;" edge="1" parent="1" source="_mztUGYwS75ONDGQnCrm-3" target="KVy6ZnTJUE07_E2snIcM-2">
          <mxGeometry relative="1" as="geometry" />
        </mxCell>
        <mxCell id="_mztUGYwS75ONDGQnCrm-3" value="action_list = legal_action()" style="shape=process;whiteSpace=wrap;html=1;backgroundOutline=1;" vertex="1" parent="1">
          <mxGeometry x="1074" y="365" width="120" height="60" as="geometry" />
        </mxCell>
        <mxCell id="_mztUGYwS75ONDGQnCrm-9" style="edgeStyle=orthogonalEdgeStyle;rounded=0;orthogonalLoop=1;jettySize=auto;html=1;exitX=0.5;exitY=1;exitDx=0;exitDy=0;entryX=0.5;entryY=0;entryDx=0;entryDy=0;" edge="1" parent="1" source="_mztUGYwS75ONDGQnCrm-7" target="KVy6ZnTJUE07_E2snIcM-6">
          <mxGeometry relative="1" as="geometry" />
        </mxCell>
        <mxCell id="_mztUGYwS75ONDGQnCrm-7" value="action_list = legal_action()" style="shape=process;whiteSpace=wrap;html=1;backgroundOutline=1;" vertex="1" parent="1">
          <mxGeometry x="1490" y="365" width="120" height="60" as="geometry" />
        </mxCell>
      </root>
    </mxGraphModel>
  </diagram>
  <diagram id="h0RPovxpnZJWdLxcoDIn" name="judgement_action()">
    <mxGraphModel dx="1434" dy="746" grid="1" gridSize="10" guides="1" tooltips="1" connect="1" arrows="1" fold="1" page="1" pageScale="1" pageWidth="827" pageHeight="1169" math="0" shadow="0">
      <root>
        <mxCell id="0" />
        <mxCell id="1" parent="0" />
        <mxCell id="e53EV5w3s7128SSlBhsk-1" style="edgeStyle=orthogonalEdgeStyle;rounded=0;orthogonalLoop=1;jettySize=auto;html=1;exitX=0.5;exitY=1;exitDx=0;exitDy=0;exitPerimeter=0;entryX=0.5;entryY=0;entryDx=0;entryDy=0;" edge="1" parent="1" source="e53EV5w3s7128SSlBhsk-2" target="e53EV5w3s7128SSlBhsk-3">
          <mxGeometry relative="1" as="geometry" />
        </mxCell>
        <mxCell id="e53EV5w3s7128SSlBhsk-2" value="judgement_action(&lt;br&gt;state, action, color)" style="strokeWidth=2;html=1;shape=mxgraph.flowchart.terminator;whiteSpace=wrap;" vertex="1" parent="1">
          <mxGeometry x="349" y="80" width="120" height="50" as="geometry" />
        </mxCell>
        <mxCell id="e53EV5w3s7128SSlBhsk-3" value="white or black" style="rhombus;whiteSpace=wrap;html=1;" vertex="1" parent="1">
          <mxGeometry x="349" y="170" width="120" height="50" as="geometry" />
        </mxCell>
        <mxCell id="e53EV5w3s7128SSlBhsk-4" value="Return&lt;br style=&quot;border-color: var(--border-color);&quot;&gt;black[state].index(action)" style="strokeWidth=2;html=1;shape=mxgraph.flowchart.terminator;whiteSpace=wrap;" vertex="1" parent="1">
          <mxGeometry x="459" y="260" width="181" height="50" as="geometry" />
        </mxCell>
        <mxCell id="e53EV5w3s7128SSlBhsk-5" value="Return &lt;br&gt;white[state].index(action)" style="strokeWidth=2;html=1;shape=mxgraph.flowchart.terminator;whiteSpace=wrap;" vertex="1" parent="1">
          <mxGeometry x="200" y="260" width="169" height="50" as="geometry" />
        </mxCell>
        <mxCell id="e53EV5w3s7128SSlBhsk-6" style="edgeStyle=orthogonalEdgeStyle;rounded=0;orthogonalLoop=1;jettySize=auto;html=1;exitX=1;exitY=0.5;exitDx=0;exitDy=0;entryX=0.5;entryY=0;entryDx=0;entryDy=0;entryPerimeter=0;" edge="1" parent="1" source="e53EV5w3s7128SSlBhsk-3" target="e53EV5w3s7128SSlBhsk-4">
          <mxGeometry relative="1" as="geometry" />
        </mxCell>
        <mxCell id="e53EV5w3s7128SSlBhsk-7" style="edgeStyle=orthogonalEdgeStyle;rounded=0;orthogonalLoop=1;jettySize=auto;html=1;exitX=0;exitY=0.5;exitDx=0;exitDy=0;entryX=0.5;entryY=0;entryDx=0;entryDy=0;entryPerimeter=0;" edge="1" parent="1" source="e53EV5w3s7128SSlBhsk-3" target="e53EV5w3s7128SSlBhsk-5">
          <mxGeometry relative="1" as="geometry" />
        </mxCell>
        <mxCell id="e53EV5w3s7128SSlBhsk-8" value="black" style="text;html=1;strokeColor=none;fillColor=none;align=center;verticalAlign=middle;whiteSpace=wrap;rounded=0;" vertex="1" parent="1">
          <mxGeometry x="479" y="170" width="20" height="20" as="geometry" />
        </mxCell>
        <mxCell id="e53EV5w3s7128SSlBhsk-9" value="white" style="text;html=1;strokeColor=none;fillColor=none;align=center;verticalAlign=middle;whiteSpace=wrap;rounded=0;" vertex="1" parent="1">
          <mxGeometry x="329" y="170" width="20" height="20" as="geometry" />
        </mxCell>
      </root>
    </mxGraphModel>
  </diagram>
  <diagram id="N6ypr0B_wRzU3H-UCnfr" name="legal_action()">
    <mxGraphModel dx="1434" dy="746" grid="1" gridSize="10" guides="1" tooltips="1" connect="1" arrows="1" fold="1" page="1" pageScale="1" pageWidth="827" pageHeight="1169" math="0" shadow="0">
      <root>
        <mxCell id="0" />
        <mxCell id="1" parent="0" />
        <mxCell id="ijKFin_MDlhd8HgMfMbV-8" style="edgeStyle=orthogonalEdgeStyle;rounded=0;orthogonalLoop=1;jettySize=auto;html=1;exitX=0.5;exitY=1;exitDx=0;exitDy=0;exitPerimeter=0;" edge="1" parent="1" source="ijKFin_MDlhd8HgMfMbV-2" target="ijKFin_MDlhd8HgMfMbV-3">
          <mxGeometry relative="1" as="geometry" />
        </mxCell>
        <mxCell id="ijKFin_MDlhd8HgMfMbV-2" value="legal_action(board)" style="strokeWidth=2;html=1;shape=mxgraph.flowchart.terminator;whiteSpace=wrap;" vertex="1" parent="1">
          <mxGeometry x="354" y="70" width="120" height="50" as="geometry" />
        </mxCell>
        <mxCell id="ijKFin_MDlhd8HgMfMbV-3" value="Return &lt;br&gt;legal_moves" style="strokeWidth=2;html=1;shape=mxgraph.flowchart.terminator;whiteSpace=wrap;" vertex="1" parent="1">
          <mxGeometry x="359" y="180" width="110" height="50" as="geometry" />
        </mxCell>
      </root>
    </mxGraphModel>
  </diagram>
  <diagram id="mk_r32SgKYE-_cyU3Rm2" name="find_optimal_policy()">
    <mxGraphModel dx="1434" dy="746" grid="1" gridSize="10" guides="1" tooltips="1" connect="1" arrows="1" fold="1" page="1" pageScale="1" pageWidth="827" pageHeight="1169" math="0" shadow="0">
      <root>
        <mxCell id="0" />
        <mxCell id="1" parent="0" />
        <mxCell id="SJcrY6Te0gkEO5rlIQCE-1" style="edgeStyle=orthogonalEdgeStyle;rounded=0;orthogonalLoop=1;jettySize=auto;html=1;exitX=0.5;exitY=1;exitDx=0;exitDy=0;exitPerimeter=0;entryX=0.5;entryY=0;entryDx=0;entryDy=0;" edge="1" parent="1" source="SJcrY6Te0gkEO5rlIQCE-2" target="SJcrY6Te0gkEO5rlIQCE-3">
          <mxGeometry relative="1" as="geometry" />
        </mxCell>
        <mxCell id="SJcrY6Te0gkEO5rlIQCE-2" value="find_optimal_policy(&lt;br&gt;state, color)" style="strokeWidth=2;html=1;shape=mxgraph.flowchart.terminator;whiteSpace=wrap;" vertex="1" parent="1">
          <mxGeometry x="343.5" y="80" width="131" height="50" as="geometry" />
        </mxCell>
        <mxCell id="SJcrY6Te0gkEO5rlIQCE-3" value="white or black" style="rhombus;whiteSpace=wrap;html=1;" vertex="1" parent="1">
          <mxGeometry x="349" y="170" width="120" height="50" as="geometry" />
        </mxCell>
        <mxCell id="SJcrY6Te0gkEO5rlIQCE-6" style="edgeStyle=orthogonalEdgeStyle;rounded=0;orthogonalLoop=1;jettySize=auto;html=1;exitX=1;exitY=0.5;exitDx=0;exitDy=0;entryX=0.5;entryY=0;entryDx=0;entryDy=0;entryPerimeter=0;" edge="1" parent="1" source="SJcrY6Te0gkEO5rlIQCE-3">
          <mxGeometry relative="1" as="geometry">
            <mxPoint x="549.5" y="260" as="targetPoint" />
          </mxGeometry>
        </mxCell>
        <mxCell id="SJcrY6Te0gkEO5rlIQCE-7" style="edgeStyle=orthogonalEdgeStyle;rounded=0;orthogonalLoop=1;jettySize=auto;html=1;exitX=0;exitY=0.5;exitDx=0;exitDy=0;entryX=0.5;entryY=0;entryDx=0;entryDy=0;entryPerimeter=0;" edge="1" parent="1" source="SJcrY6Te0gkEO5rlIQCE-3">
          <mxGeometry relative="1" as="geometry">
            <mxPoint x="284.5" y="260" as="targetPoint" />
          </mxGeometry>
        </mxCell>
        <mxCell id="SJcrY6Te0gkEO5rlIQCE-8" value="black" style="text;html=1;strokeColor=none;fillColor=none;align=center;verticalAlign=middle;whiteSpace=wrap;rounded=0;" vertex="1" parent="1">
          <mxGeometry x="500" y="170" width="20" height="20" as="geometry" />
        </mxCell>
        <mxCell id="SJcrY6Te0gkEO5rlIQCE-9" value="white" style="text;html=1;strokeColor=none;fillColor=none;align=center;verticalAlign=middle;whiteSpace=wrap;rounded=0;" vertex="1" parent="1">
          <mxGeometry x="310" y="170" width="20" height="20" as="geometry" />
        </mxCell>
        <mxCell id="SJcrY6Te0gkEO5rlIQCE-11" value="find argmax action white" style="rounded=0;whiteSpace=wrap;html=1;" vertex="1" parent="1">
          <mxGeometry x="229" y="260" width="120" height="40" as="geometry" />
        </mxCell>
        <mxCell id="SJcrY6Te0gkEO5rlIQCE-13" value="find argmax action black" style="rounded=0;whiteSpace=wrap;html=1;" vertex="1" parent="1">
          <mxGeometry x="490" y="260" width="120" height="40" as="geometry" />
        </mxCell>
        <mxCell id="LW1WTccel3n_5xm6mjFZ-1" value="Return &lt;br&gt;argmax action" style="strokeWidth=2;html=1;shape=mxgraph.flowchart.terminator;whiteSpace=wrap;" vertex="1" parent="1">
          <mxGeometry x="354" y="340" width="110" height="50" as="geometry" />
        </mxCell>
        <mxCell id="LW1WTccel3n_5xm6mjFZ-3" style="edgeStyle=orthogonalEdgeStyle;rounded=0;orthogonalLoop=1;jettySize=auto;html=1;exitX=0.5;exitY=1;exitDx=0;exitDy=0;entryX=0.5;entryY=0;entryDx=0;entryDy=0;entryPerimeter=0;" edge="1" parent="1" source="SJcrY6Te0gkEO5rlIQCE-11" target="LW1WTccel3n_5xm6mjFZ-1">
          <mxGeometry relative="1" as="geometry" />
        </mxCell>
        <mxCell id="LW1WTccel3n_5xm6mjFZ-4" style="edgeStyle=orthogonalEdgeStyle;rounded=0;orthogonalLoop=1;jettySize=auto;html=1;exitX=0.5;exitY=1;exitDx=0;exitDy=0;" edge="1" parent="1" source="SJcrY6Te0gkEO5rlIQCE-13">
          <mxGeometry relative="1" as="geometry">
            <mxPoint x="410" y="340" as="targetPoint" />
          </mxGeometry>
        </mxCell>
      </root>
    </mxGraphModel>
  </diagram>
  <diagram id="yxBF9Mxm1mEi8ZBkLZX9" name="generate_probability()">
    <mxGraphModel dx="1434" dy="746" grid="1" gridSize="10" guides="1" tooltips="1" connect="1" arrows="1" fold="1" page="1" pageScale="1" pageWidth="827" pageHeight="1169" math="0" shadow="0">
      <root>
        <mxCell id="0" />
        <mxCell id="1" parent="0" />
        <mxCell id="GFO6PULZOyozv8TCZWa4-1" style="edgeStyle=orthogonalEdgeStyle;rounded=0;orthogonalLoop=1;jettySize=auto;html=1;exitX=0.5;exitY=1;exitDx=0;exitDy=0;exitPerimeter=0;entryX=0.5;entryY=0;entryDx=0;entryDy=0;" edge="1" parent="1" source="GFO6PULZOyozv8TCZWa4-2">
          <mxGeometry relative="1" as="geometry">
            <mxPoint x="414" y="190" as="targetPoint" />
          </mxGeometry>
        </mxCell>
        <mxCell id="GFO6PULZOyozv8TCZWa4-2" value="generate_probability(&lt;br&gt;len, index_pi, param)" style="strokeWidth=2;html=1;shape=mxgraph.flowchart.terminator;whiteSpace=wrap;" vertex="1" parent="1">
          <mxGeometry x="341" y="100" width="146" height="50" as="geometry" />
        </mxCell>
        <mxCell id="GFO6PULZOyozv8TCZWa4-3" value="Return &lt;br&gt;probability" style="strokeWidth=2;html=1;shape=mxgraph.flowchart.terminator;whiteSpace=wrap;" vertex="1" parent="1">
          <mxGeometry x="220" y="470" width="110" height="50" as="geometry" />
        </mxCell>
        <mxCell id="GFO6PULZOyozv8TCZWa4-4" style="edgeStyle=orthogonalEdgeStyle;rounded=0;orthogonalLoop=1;jettySize=auto;html=1;exitX=0.5;exitY=1;exitDx=0;exitDy=0;entryX=0.5;entryY=0;entryDx=0;entryDy=0;" edge="1" parent="1" source="GFO6PULZOyozv8TCZWa4-5" target="GFO6PULZOyozv8TCZWa4-7">
          <mxGeometry relative="1" as="geometry" />
        </mxCell>
        <mxCell id="GFO6PULZOyozv8TCZWa4-5" value="probability = &lt;br&gt;[0.1 / len] * len" style="rounded=0;whiteSpace=wrap;html=1;" vertex="1" parent="1">
          <mxGeometry x="210" y="280" width="130" height="50" as="geometry" />
        </mxCell>
        <mxCell id="GFO6PULZOyozv8TCZWa4-6" style="edgeStyle=orthogonalEdgeStyle;rounded=0;orthogonalLoop=1;jettySize=auto;html=1;exitX=0.5;exitY=1;exitDx=0;exitDy=0;" edge="1" parent="1" source="GFO6PULZOyozv8TCZWa4-7" target="GFO6PULZOyozv8TCZWa4-3">
          <mxGeometry relative="1" as="geometry" />
        </mxCell>
        <mxCell id="GFO6PULZOyozv8TCZWa4-7" value="probability[index_pi] +=&lt;br&gt;0.9" style="rounded=0;whiteSpace=wrap;html=1;" vertex="1" parent="1">
          <mxGeometry x="210" y="370" width="130" height="60" as="geometry" />
        </mxCell>
        <mxCell id="Rgd7T9ry3LbOqc-yXh9--4" style="edgeStyle=orthogonalEdgeStyle;rounded=0;orthogonalLoop=1;jettySize=auto;html=1;exitX=0;exitY=0.5;exitDx=0;exitDy=0;entryX=0.5;entryY=0;entryDx=0;entryDy=0;" edge="1" parent="1" source="Rgd7T9ry3LbOqc-yXh9--1" target="GFO6PULZOyozv8TCZWa4-5">
          <mxGeometry relative="1" as="geometry" />
        </mxCell>
        <mxCell id="Rgd7T9ry3LbOqc-yXh9--1" value="param == True?" style="rhombus;whiteSpace=wrap;html=1;" vertex="1" parent="1">
          <mxGeometry x="354" y="190" width="120" height="50" as="geometry" />
        </mxCell>
        <mxCell id="Rgd7T9ry3LbOqc-yXh9--2" value="Return &lt;br&gt;[1 / len] * len" style="strokeWidth=2;html=1;shape=mxgraph.flowchart.terminator;whiteSpace=wrap;" vertex="1" parent="1">
          <mxGeometry x="490" y="280" width="110" height="50" as="geometry" />
        </mxCell>
        <mxCell id="Rgd7T9ry3LbOqc-yXh9--3" style="edgeStyle=orthogonalEdgeStyle;rounded=0;orthogonalLoop=1;jettySize=auto;html=1;exitX=1;exitY=0.5;exitDx=0;exitDy=0;entryX=0.5;entryY=0;entryDx=0;entryDy=0;entryPerimeter=0;" edge="1" parent="1" source="Rgd7T9ry3LbOqc-yXh9--1" target="Rgd7T9ry3LbOqc-yXh9--2">
          <mxGeometry relative="1" as="geometry" />
        </mxCell>
        <mxCell id="Rgd7T9ry3LbOqc-yXh9--5" value="yes" style="text;html=1;strokeColor=none;fillColor=none;align=center;verticalAlign=middle;whiteSpace=wrap;rounded=0;" vertex="1" parent="1">
          <mxGeometry x="474" y="190" width="60" height="30" as="geometry" />
        </mxCell>
        <mxCell id="Rgd7T9ry3LbOqc-yXh9--6" value="no" style="text;html=1;strokeColor=none;fillColor=none;align=center;verticalAlign=middle;whiteSpace=wrap;rounded=0;" vertex="1" parent="1">
          <mxGeometry x="290" y="190" width="60" height="30" as="geometry" />
        </mxCell>
      </root>
    </mxGraphModel>
  </diagram>
  <diagram id="KPog94AXET_pV1hOzRdq" name="state_converter()">
    <mxGraphModel dx="1434" dy="746" grid="1" gridSize="10" guides="1" tooltips="1" connect="1" arrows="1" fold="1" page="1" pageScale="1" pageWidth="827" pageHeight="1169" math="0" shadow="0">
      <root>
        <mxCell id="0" />
        <mxCell id="1" parent="0" />
        <mxCell id="_9mxR8nyVU7jjpXIyjwz-5" style="edgeStyle=orthogonalEdgeStyle;rounded=0;orthogonalLoop=1;jettySize=auto;html=1;exitX=0.5;exitY=1;exitDx=0;exitDy=0;exitPerimeter=0;entryX=0.5;entryY=0;entryDx=0;entryDy=0;" edge="1" parent="1" source="_9mxR8nyVU7jjpXIyjwz-2" target="_9mxR8nyVU7jjpXIyjwz-4">
          <mxGeometry relative="1" as="geometry" />
        </mxCell>
        <mxCell id="_9mxR8nyVU7jjpXIyjwz-2" value="state_converter(&lt;br&gt;raw_state)" style="strokeWidth=2;html=1;shape=mxgraph.flowchart.terminator;whiteSpace=wrap;" vertex="1" parent="1">
          <mxGeometry x="354" y="70" width="120" height="50" as="geometry" />
        </mxCell>
        <mxCell id="_9mxR8nyVU7jjpXIyjwz-3" value="Return &lt;br&gt;state" style="strokeWidth=2;html=1;shape=mxgraph.flowchart.terminator;whiteSpace=wrap;" vertex="1" parent="1">
          <mxGeometry x="359" y="260" width="110" height="50" as="geometry" />
        </mxCell>
        <mxCell id="_9mxR8nyVU7jjpXIyjwz-4" value="state = raw_state[:4]" style="rounded=0;whiteSpace=wrap;html=1;" vertex="1" parent="1">
          <mxGeometry x="361" y="160" width="106" height="50" as="geometry" />
        </mxCell>
        <mxCell id="_9mxR8nyVU7jjpXIyjwz-6" style="edgeStyle=orthogonalEdgeStyle;rounded=0;orthogonalLoop=1;jettySize=auto;html=1;exitX=0.5;exitY=1;exitDx=0;exitDy=0;entryX=0.5;entryY=0;entryDx=0;entryDy=0;entryPerimeter=0;" edge="1" parent="1" source="_9mxR8nyVU7jjpXIyjwz-4" target="_9mxR8nyVU7jjpXIyjwz-3">
          <mxGeometry relative="1" as="geometry" />
        </mxCell>
      </root>
    </mxGraphModel>
  </diagram>
  <diagram id="MECalgD8HdxC-5nR9JK5" name="choose_action()">
    <mxGraphModel dx="1434" dy="746" grid="1" gridSize="10" guides="1" tooltips="1" connect="1" arrows="1" fold="1" page="1" pageScale="1" pageWidth="827" pageHeight="1169" math="0" shadow="0">
      <root>
        <mxCell id="0" />
        <mxCell id="1" parent="0" />
        <mxCell id="idUoCXoB1idI4sbhDltY-1" style="edgeStyle=orthogonalEdgeStyle;rounded=0;orthogonalLoop=1;jettySize=auto;html=1;exitX=0.5;exitY=1;exitDx=0;exitDy=0;exitPerimeter=0;entryX=0.5;entryY=0;entryDx=0;entryDy=0;" edge="1" parent="1" source="idUoCXoB1idI4sbhDltY-2" target="idUoCXoB1idI4sbhDltY-3">
          <mxGeometry relative="1" as="geometry" />
        </mxCell>
        <mxCell id="idUoCXoB1idI4sbhDltY-2" value="choose_action(&lt;br&gt;state, color)" style="strokeWidth=2;html=1;shape=mxgraph.flowchart.terminator;whiteSpace=wrap;" vertex="1" parent="1">
          <mxGeometry x="343.5" y="80" width="131" height="50" as="geometry" />
        </mxCell>
        <mxCell id="idUoCXoB1idI4sbhDltY-3" value="white or black" style="rhombus;whiteSpace=wrap;html=1;" vertex="1" parent="1">
          <mxGeometry x="349" y="170" width="120" height="50" as="geometry" />
        </mxCell>
        <mxCell id="idUoCXoB1idI4sbhDltY-4" style="edgeStyle=orthogonalEdgeStyle;rounded=0;orthogonalLoop=1;jettySize=auto;html=1;exitX=1;exitY=0.5;exitDx=0;exitDy=0;entryX=0.5;entryY=0;entryDx=0;entryDy=0;entryPerimeter=0;" edge="1" parent="1" source="idUoCXoB1idI4sbhDltY-3">
          <mxGeometry relative="1" as="geometry">
            <mxPoint x="549.5" y="260" as="targetPoint" />
          </mxGeometry>
        </mxCell>
        <mxCell id="idUoCXoB1idI4sbhDltY-5" style="edgeStyle=orthogonalEdgeStyle;rounded=0;orthogonalLoop=1;jettySize=auto;html=1;exitX=0;exitY=0.5;exitDx=0;exitDy=0;entryX=0.5;entryY=0;entryDx=0;entryDy=0;entryPerimeter=0;" edge="1" parent="1" source="idUoCXoB1idI4sbhDltY-3">
          <mxGeometry relative="1" as="geometry">
            <mxPoint x="284.5" y="260" as="targetPoint" />
          </mxGeometry>
        </mxCell>
        <mxCell id="idUoCXoB1idI4sbhDltY-6" value="black" style="text;html=1;strokeColor=none;fillColor=none;align=center;verticalAlign=middle;whiteSpace=wrap;rounded=0;" vertex="1" parent="1">
          <mxGeometry x="500" y="170" width="20" height="20" as="geometry" />
        </mxCell>
        <mxCell id="idUoCXoB1idI4sbhDltY-7" value="white" style="text;html=1;strokeColor=none;fillColor=none;align=center;verticalAlign=middle;whiteSpace=wrap;rounded=0;" vertex="1" parent="1">
          <mxGeometry x="310" y="170" width="20" height="20" as="geometry" />
        </mxCell>
        <mxCell id="idUoCXoB1idI4sbhDltY-8" value="choose action by b" style="rounded=0;whiteSpace=wrap;html=1;" vertex="1" parent="1">
          <mxGeometry x="229" y="260" width="120" height="40" as="geometry" />
        </mxCell>
        <mxCell id="idUoCXoB1idI4sbhDltY-9" value="choose action by b" style="rounded=0;whiteSpace=wrap;html=1;" vertex="1" parent="1">
          <mxGeometry x="490" y="260" width="120" height="40" as="geometry" />
        </mxCell>
        <mxCell id="idUoCXoB1idI4sbhDltY-10" value="Return &lt;br&gt;action" style="strokeWidth=2;html=1;shape=mxgraph.flowchart.terminator;whiteSpace=wrap;" vertex="1" parent="1">
          <mxGeometry x="354" y="340" width="110" height="50" as="geometry" />
        </mxCell>
        <mxCell id="idUoCXoB1idI4sbhDltY-11" style="edgeStyle=orthogonalEdgeStyle;rounded=0;orthogonalLoop=1;jettySize=auto;html=1;exitX=0.5;exitY=1;exitDx=0;exitDy=0;entryX=0.5;entryY=0;entryDx=0;entryDy=0;entryPerimeter=0;" edge="1" parent="1" source="idUoCXoB1idI4sbhDltY-8" target="idUoCXoB1idI4sbhDltY-10">
          <mxGeometry relative="1" as="geometry" />
        </mxCell>
        <mxCell id="idUoCXoB1idI4sbhDltY-12" style="edgeStyle=orthogonalEdgeStyle;rounded=0;orthogonalLoop=1;jettySize=auto;html=1;exitX=0.5;exitY=1;exitDx=0;exitDy=0;" edge="1" parent="1" source="idUoCXoB1idI4sbhDltY-9">
          <mxGeometry relative="1" as="geometry">
            <mxPoint x="410" y="340" as="targetPoint" />
          </mxGeometry>
        </mxCell>
      </root>
    </mxGraphModel>
  </diagram>
  <diagram id="F7UaCZ3YAlIxGUkEI62k" name="generate_episode()">
    <mxGraphModel dx="1687" dy="878" grid="1" gridSize="10" guides="1" tooltips="1" connect="1" arrows="1" fold="1" page="1" pageScale="1" pageWidth="827" pageHeight="1169" math="0" shadow="0">
      <root>
        <mxCell id="0" />
        <mxCell id="1" parent="0" />
        <mxCell id="XcyKVjONvC-xvOfmB5Qt-48" style="edgeStyle=orthogonalEdgeStyle;rounded=0;orthogonalLoop=1;jettySize=auto;html=1;exitX=0.5;exitY=1;exitDx=0;exitDy=0;exitPerimeter=0;entryX=0.5;entryY=0;entryDx=0;entryDy=0;" edge="1" parent="1" source="XcyKVjONvC-xvOfmB5Qt-2" target="XcyKVjONvC-xvOfmB5Qt-34">
          <mxGeometry relative="1" as="geometry" />
        </mxCell>
        <mxCell id="XcyKVjONvC-xvOfmB5Qt-2" value="generate_episode()" style="strokeWidth=2;html=1;shape=mxgraph.flowchart.terminator;whiteSpace=wrap;" vertex="1" parent="1">
          <mxGeometry x="343.5" y="80" width="131" height="50" as="geometry" />
        </mxCell>
        <mxCell id="XcyKVjONvC-xvOfmB5Qt-3" value="who&#39;s turn?" style="rhombus;whiteSpace=wrap;html=1;" vertex="1" parent="1">
          <mxGeometry x="348" y="310" width="120" height="50" as="geometry" />
        </mxCell>
        <mxCell id="XcyKVjONvC-xvOfmB5Qt-4" style="edgeStyle=orthogonalEdgeStyle;rounded=0;orthogonalLoop=1;jettySize=auto;html=1;exitX=1;exitY=0.5;exitDx=0;exitDy=0;entryX=0.5;entryY=0;entryDx=0;entryDy=0;entryPerimeter=0;" edge="1" parent="1" source="XcyKVjONvC-xvOfmB5Qt-3">
          <mxGeometry relative="1" as="geometry">
            <mxPoint x="548.5" y="400" as="targetPoint" />
          </mxGeometry>
        </mxCell>
        <mxCell id="XcyKVjONvC-xvOfmB5Qt-5" style="edgeStyle=orthogonalEdgeStyle;rounded=0;orthogonalLoop=1;jettySize=auto;html=1;exitX=0;exitY=0.5;exitDx=0;exitDy=0;entryX=0.5;entryY=0;entryDx=0;entryDy=0;entryPerimeter=0;" edge="1" parent="1" source="XcyKVjONvC-xvOfmB5Qt-3">
          <mxGeometry relative="1" as="geometry">
            <mxPoint x="283.5" y="400" as="targetPoint" />
          </mxGeometry>
        </mxCell>
        <mxCell id="XcyKVjONvC-xvOfmB5Qt-6" value="black" style="text;html=1;strokeColor=none;fillColor=none;align=center;verticalAlign=middle;whiteSpace=wrap;rounded=0;" vertex="1" parent="1">
          <mxGeometry x="499" y="310" width="20" height="20" as="geometry" />
        </mxCell>
        <mxCell id="XcyKVjONvC-xvOfmB5Qt-7" value="white" style="text;html=1;strokeColor=none;fillColor=none;align=center;verticalAlign=middle;whiteSpace=wrap;rounded=0;" vertex="1" parent="1">
          <mxGeometry x="309" y="310" width="20" height="20" as="geometry" />
        </mxCell>
        <mxCell id="XcyKVjONvC-xvOfmB5Qt-36" style="edgeStyle=orthogonalEdgeStyle;rounded=0;orthogonalLoop=1;jettySize=auto;html=1;exitX=0.5;exitY=1;exitDx=0;exitDy=0;entryX=0.5;entryY=0;entryDx=0;entryDy=0;" edge="1" parent="1" source="XcyKVjONvC-xvOfmB5Qt-13" target="XcyKVjONvC-xvOfmB5Qt-15">
          <mxGeometry relative="1" as="geometry" />
        </mxCell>
        <mxCell id="XcyKVjONvC-xvOfmB5Qt-13" value="state = state_converter(&lt;br&gt;board)" style="shape=process;whiteSpace=wrap;html=1;backgroundOutline=1;" vertex="1" parent="1">
          <mxGeometry x="228" y="400" width="120" height="50" as="geometry" />
        </mxCell>
        <mxCell id="XcyKVjONvC-xvOfmB5Qt-37" style="edgeStyle=orthogonalEdgeStyle;rounded=0;orthogonalLoop=1;jettySize=auto;html=1;exitX=0.5;exitY=1;exitDx=0;exitDy=0;entryX=0.5;entryY=0;entryDx=0;entryDy=0;" edge="1" parent="1" source="XcyKVjONvC-xvOfmB5Qt-15" target="XcyKVjONvC-xvOfmB5Qt-19">
          <mxGeometry relative="1" as="geometry" />
        </mxCell>
        <mxCell id="XcyKVjONvC-xvOfmB5Qt-15" value="action = choose_action(&lt;br&gt;state, white)" style="shape=process;whiteSpace=wrap;html=1;backgroundOutline=1;" vertex="1" parent="1">
          <mxGeometry x="228" y="470" width="120" height="50" as="geometry" />
        </mxCell>
        <mxCell id="XcyKVjONvC-xvOfmB5Qt-45" style="edgeStyle=orthogonalEdgeStyle;rounded=0;orthogonalLoop=1;jettySize=auto;html=1;exitX=0.5;exitY=1;exitDx=0;exitDy=0;entryX=0.5;entryY=0;entryDx=0;entryDy=0;" edge="1" parent="1" source="XcyKVjONvC-xvOfmB5Qt-17" target="XcyKVjONvC-xvOfmB5Qt-18">
          <mxGeometry relative="1" as="geometry" />
        </mxCell>
        <mxCell id="XcyKVjONvC-xvOfmB5Qt-17" value="state = state_converter(&lt;br&gt;board)" style="shape=process;whiteSpace=wrap;html=1;backgroundOutline=1;" vertex="1" parent="1">
          <mxGeometry x="489" y="400" width="120" height="50" as="geometry" />
        </mxCell>
        <mxCell id="XcyKVjONvC-xvOfmB5Qt-44" style="edgeStyle=orthogonalEdgeStyle;rounded=0;orthogonalLoop=1;jettySize=auto;html=1;exitX=0.5;exitY=1;exitDx=0;exitDy=0;entryX=0.5;entryY=0;entryDx=0;entryDy=0;" edge="1" parent="1" source="XcyKVjONvC-xvOfmB5Qt-18" target="XcyKVjONvC-xvOfmB5Qt-20">
          <mxGeometry relative="1" as="geometry" />
        </mxCell>
        <mxCell id="XcyKVjONvC-xvOfmB5Qt-18" value="action = choose_action(&lt;br&gt;state, white)" style="shape=process;whiteSpace=wrap;html=1;backgroundOutline=1;" vertex="1" parent="1">
          <mxGeometry x="489" y="470" width="120" height="50" as="geometry" />
        </mxCell>
        <mxCell id="XcyKVjONvC-xvOfmB5Qt-38" style="edgeStyle=orthogonalEdgeStyle;rounded=0;orthogonalLoop=1;jettySize=auto;html=1;exitX=0.5;exitY=1;exitDx=0;exitDy=0;entryX=0.5;entryY=0;entryDx=0;entryDy=0;" edge="1" parent="1" source="XcyKVjONvC-xvOfmB5Qt-19" target="XcyKVjONvC-xvOfmB5Qt-21">
          <mxGeometry relative="1" as="geometry" />
        </mxCell>
        <mxCell id="XcyKVjONvC-xvOfmB5Qt-19" value="move_agent(&lt;br&gt;board, action, turn)" style="shape=process;whiteSpace=wrap;html=1;backgroundOutline=1;" vertex="1" parent="1">
          <mxGeometry x="228" y="540" width="120" height="50" as="geometry" />
        </mxCell>
        <mxCell id="XcyKVjONvC-xvOfmB5Qt-43" style="edgeStyle=orthogonalEdgeStyle;rounded=0;orthogonalLoop=1;jettySize=auto;html=1;exitX=0.5;exitY=1;exitDx=0;exitDy=0;entryX=0.5;entryY=0;entryDx=0;entryDy=0;" edge="1" parent="1" source="XcyKVjONvC-xvOfmB5Qt-20" target="XcyKVjONvC-xvOfmB5Qt-22">
          <mxGeometry relative="1" as="geometry" />
        </mxCell>
        <mxCell id="XcyKVjONvC-xvOfmB5Qt-20" value="move_agent(&lt;br&gt;board, action, turn)" style="shape=process;whiteSpace=wrap;html=1;backgroundOutline=1;" vertex="1" parent="1">
          <mxGeometry x="489" y="540" width="120" height="50" as="geometry" />
        </mxCell>
        <mxCell id="XcyKVjONvC-xvOfmB5Qt-39" style="edgeStyle=orthogonalEdgeStyle;rounded=0;orthogonalLoop=1;jettySize=auto;html=1;exitX=0.5;exitY=1;exitDx=0;exitDy=0;entryX=0.5;entryY=0;entryDx=0;entryDy=0;" edge="1" parent="1" source="XcyKVjONvC-xvOfmB5Qt-21" target="XcyKVjONvC-xvOfmB5Qt-23">
          <mxGeometry relative="1" as="geometry" />
        </mxCell>
        <mxCell id="XcyKVjONvC-xvOfmB5Qt-21" value="episode_white[state] = &lt;br&gt;[action, return_reward_white(&lt;br&gt;judgement_end(board, turn))" style="shape=process;whiteSpace=wrap;html=1;backgroundOutline=1;" vertex="1" parent="1">
          <mxGeometry x="177.5" y="610" width="221" height="60" as="geometry" />
        </mxCell>
        <mxCell id="XcyKVjONvC-xvOfmB5Qt-42" style="edgeStyle=orthogonalEdgeStyle;rounded=0;orthogonalLoop=1;jettySize=auto;html=1;exitX=0.5;exitY=1;exitDx=0;exitDy=0;entryX=0.5;entryY=0;entryDx=0;entryDy=0;" edge="1" parent="1" source="XcyKVjONvC-xvOfmB5Qt-22" target="XcyKVjONvC-xvOfmB5Qt-26">
          <mxGeometry relative="1" as="geometry" />
        </mxCell>
        <mxCell id="XcyKVjONvC-xvOfmB5Qt-22" value="episode_black[state] = &lt;br&gt;[action, return_reward_black(&lt;br&gt;judgement_end(board, turn))" style="shape=process;whiteSpace=wrap;html=1;backgroundOutline=1;" vertex="1" parent="1">
          <mxGeometry x="438.5" y="610" width="221" height="60" as="geometry" />
        </mxCell>
        <mxCell id="XcyKVjONvC-xvOfmB5Qt-40" style="edgeStyle=orthogonalEdgeStyle;rounded=0;orthogonalLoop=1;jettySize=auto;html=1;exitX=0.5;exitY=1;exitDx=0;exitDy=0;entryX=0.5;entryY=0;entryDx=0;entryDy=0;" edge="1" parent="1" source="XcyKVjONvC-xvOfmB5Qt-23" target="XcyKVjONvC-xvOfmB5Qt-27">
          <mxGeometry relative="1" as="geometry" />
        </mxCell>
        <mxCell id="XcyKVjONvC-xvOfmB5Qt-23" value="judgement_end(board, turn)" style="shape=process;whiteSpace=wrap;html=1;backgroundOutline=1;" vertex="1" parent="1">
          <mxGeometry x="177.5" y="690" width="221.5" height="40" as="geometry" />
        </mxCell>
        <mxCell id="XcyKVjONvC-xvOfmB5Qt-41" style="edgeStyle=orthogonalEdgeStyle;rounded=0;orthogonalLoop=1;jettySize=auto;html=1;exitX=0.5;exitY=1;exitDx=0;exitDy=0;entryX=0.5;entryY=0;entryDx=0;entryDy=0;" edge="1" parent="1" source="XcyKVjONvC-xvOfmB5Qt-26" target="XcyKVjONvC-xvOfmB5Qt-28">
          <mxGeometry relative="1" as="geometry" />
        </mxCell>
        <mxCell id="XcyKVjONvC-xvOfmB5Qt-26" value="judgement_end(board, turn)" style="shape=process;whiteSpace=wrap;html=1;backgroundOutline=1;" vertex="1" parent="1">
          <mxGeometry x="438.5" y="690" width="221.5" height="40" as="geometry" />
        </mxCell>
        <mxCell id="XcyKVjONvC-xvOfmB5Qt-27" value="end?" style="rhombus;whiteSpace=wrap;html=1;" vertex="1" parent="1">
          <mxGeometry x="219" y="750" width="120" height="50" as="geometry" />
        </mxCell>
        <mxCell id="XcyKVjONvC-xvOfmB5Qt-51" style="edgeStyle=orthogonalEdgeStyle;rounded=0;orthogonalLoop=1;jettySize=auto;html=1;exitX=0;exitY=0.5;exitDx=0;exitDy=0;" edge="1" parent="1" source="XcyKVjONvC-xvOfmB5Qt-28">
          <mxGeometry relative="1" as="geometry">
            <mxPoint x="410" y="820" as="targetPoint" />
          </mxGeometry>
        </mxCell>
        <mxCell id="XcyKVjONvC-xvOfmB5Qt-28" value="end?" style="rhombus;whiteSpace=wrap;html=1;" vertex="1" parent="1">
          <mxGeometry x="489" y="750" width="120" height="50" as="geometry" />
        </mxCell>
        <mxCell id="XcyKVjONvC-xvOfmB5Qt-32" value="" style="endArrow=classic;html=1;rounded=0;exitX=1;exitY=0.5;exitDx=0;exitDy=0;" edge="1" parent="1" source="XcyKVjONvC-xvOfmB5Qt-28">
          <mxGeometry width="50" height="50" relative="1" as="geometry">
            <mxPoint x="609" y="770" as="sourcePoint" />
            <mxPoint x="400" y="290" as="targetPoint" />
            <Array as="points">
              <mxPoint x="699" y="775" />
              <mxPoint x="700" y="290" />
            </Array>
          </mxGeometry>
        </mxCell>
        <mxCell id="XcyKVjONvC-xvOfmB5Qt-33" value="" style="endArrow=classic;html=1;rounded=0;exitX=0;exitY=0.5;exitDx=0;exitDy=0;" edge="1" parent="1" source="XcyKVjONvC-xvOfmB5Qt-27">
          <mxGeometry width="50" height="50" relative="1" as="geometry">
            <mxPoint x="109" y="760" as="sourcePoint" />
            <mxPoint x="410" y="290" as="targetPoint" />
            <Array as="points">
              <mxPoint x="119" y="775" />
              <mxPoint x="119" y="290" />
            </Array>
          </mxGeometry>
        </mxCell>
        <mxCell id="XcyKVjONvC-xvOfmB5Qt-35" style="edgeStyle=orthogonalEdgeStyle;rounded=0;orthogonalLoop=1;jettySize=auto;html=1;exitX=0.5;exitY=1;exitDx=0;exitDy=0;entryX=0.5;entryY=0;entryDx=0;entryDy=0;" edge="1" parent="1" source="XcyKVjONvC-xvOfmB5Qt-34" target="XcyKVjONvC-xvOfmB5Qt-3">
          <mxGeometry relative="1" as="geometry" />
        </mxCell>
        <mxCell id="XcyKVjONvC-xvOfmB5Qt-34" value="episode_white = {}&lt;br&gt;episode_black = {}&lt;br&gt;state_list_white = []&lt;br&gt;state_list_black = []&lt;br&gt;board = chess.Board()&lt;br&gt;turn = 0" style="rounded=0;whiteSpace=wrap;html=1;" vertex="1" parent="1">
          <mxGeometry x="323.5" y="150" width="171" height="110" as="geometry" />
        </mxCell>
        <mxCell id="XcyKVjONvC-xvOfmB5Qt-46" value="No" style="text;html=1;strokeColor=none;fillColor=none;align=center;verticalAlign=middle;whiteSpace=wrap;rounded=0;" vertex="1" parent="1">
          <mxGeometry x="159" y="750" width="60" height="30" as="geometry" />
        </mxCell>
        <mxCell id="XcyKVjONvC-xvOfmB5Qt-47" value="No" style="text;html=1;strokeColor=none;fillColor=none;align=center;verticalAlign=middle;whiteSpace=wrap;rounded=0;" vertex="1" parent="1">
          <mxGeometry x="609" y="750" width="60" height="30" as="geometry" />
        </mxCell>
        <mxCell id="XcyKVjONvC-xvOfmB5Qt-49" value="return&lt;br&gt;episode_white&lt;br style=&quot;border-color: var(--border-color);&quot;&gt;episode_black&lt;br style=&quot;border-color: var(--border-color);&quot;&gt;state_list_white&lt;br style=&quot;border-color: var(--border-color);&quot;&gt;state_list_black&lt;br style=&quot;border-color: var(--border-color);&quot;&gt;turn = 0" style="strokeWidth=2;html=1;shape=mxgraph.flowchart.terminator;whiteSpace=wrap;" vertex="1" parent="1">
          <mxGeometry x="331.88" y="820" width="154.25" height="130" as="geometry" />
        </mxCell>
        <mxCell id="XcyKVjONvC-xvOfmB5Qt-50" style="edgeStyle=orthogonalEdgeStyle;rounded=0;orthogonalLoop=1;jettySize=auto;html=1;exitX=1;exitY=0.5;exitDx=0;exitDy=0;entryX=0.5;entryY=0;entryDx=0;entryDy=0;entryPerimeter=0;" edge="1" parent="1" source="XcyKVjONvC-xvOfmB5Qt-27" target="XcyKVjONvC-xvOfmB5Qt-49">
          <mxGeometry relative="1" as="geometry" />
        </mxCell>
        <mxCell id="XcyKVjONvC-xvOfmB5Qt-52" value="Yes" style="text;html=1;strokeColor=none;fillColor=none;align=center;verticalAlign=middle;whiteSpace=wrap;rounded=0;" vertex="1" parent="1">
          <mxGeometry x="379.01" y="750" width="60" height="30" as="geometry" />
        </mxCell>
      </root>
    </mxGraphModel>
  </diagram>
</mxfile>
